# xmcd
#
# Track frame offsets: 
#        150
#        24264
#        49523
#        111172
#        128942
#        170351
#        192326
#        230497
#        259376
#        305978
#
# Disc length: 4436 seconds
#
# Revision: 0
# Processed by: cddbd v1.5.2PL0 Copyright (c) Steve Scherf et al.
# Submitted via: ExactAudioCopy v0.99pb5
#
DISCID=8911520a
DTITLE=Jeff Beck   - Lost Beck Tapes  05-02-75  FLAC
DYEAR=1900
DGENRE=
TTITLE0=Constipated Duck
TTITLE1=She's A Woman
TTITLE2=Freeway Jam
TTITLE3=Definitely Maybe
TTITLE4='Cause We've Ended As Lovers
TTITLE5=Power
TTITLE6=Got The Feeling
TTITLE7=You Know What I Mean
TTITLE8=Diamond Dust
TTITLE9=Jeff's Jam '75 Version
EXTD=
EXTT0=
EXTT1=
EXTT2=
EXTT3=
EXTT4=
EXTT5=
EXTT6=
EXTT7=
EXTT8=
EXTT9=
PLAYORDER=
